<svg width="1163" height="989" viewBox="0 0 1163 989" fill="none" xmlns="http://www.w3.org/2000/svg">
<path fill-rule="evenodd" clip-rule="evenodd" d="M1157.68 658.688L1113.3 647.078C1080.5 638.499 977.501 654.532 882.266 707.675C799.189 754.034 672.479 832.951 586.768 856.955C501.057 880.959 448.429 840.865 395.504 799.999C342.269 759.746 289.95 719.039 236.715 678.786C183.48 638.532 131.162 597.826 60.2973 592.455C-10.8769 587.696 -98.7646 617.367 -143.625 632.655L-187.569 647.491L-62.9213 400.864L-30.7309 409.284C2.06691 417.863 66.4478 434.702 131.436 451.7C196.424 468.699 260.805 485.538 325.794 502.537C390.782 519.535 455.163 536.374 520.151 553.373C585.139 570.371 572.988 567.193 637.976 584.191C702.964 601.19 722.701 544.913 865.947 582.381C900.649 591.457 1080.5 638.499 1113.3 647.078L1157.68 658.688Z" fill="#7177F1" fill-opacity="0.3"/>
<path fill-rule="evenodd" clip-rule="evenodd" d="M1135 643.017L1102.81 634.597C1070.01 626.019 1005.63 609.179 913.695 645.491C821.449 682.423 702.868 772.825 616.888 797.359C530.909 821.893 478.434 781.498 425.664 740.324C372.581 699.77 320.419 658.755 267.336 618.201C214.253 577.646 162.091 536.631 91.1499 531.411C19.8956 526.81 -68.296 557.082 -113.312 572.679L-157.408 587.816L-31.1489 338L1.04157 346.42C33.8393 354.998 98.2203 371.838 163.209 388.836C228.197 405.835 292.578 422.674 357.566 439.672C422.554 456.671 486.935 473.51 551.923 490.509C616.912 507.507 681.292 524.346 746.281 541.345C811.269 558.343 875.65 575.183 940.638 592.181C1005.63 609.179 1070.01 626.019 1102.81 634.597L1135 643.017Z" fill="#9297EF"/>
<path fill-rule="evenodd" clip-rule="evenodd" d="M926.364 623.443L884.551 612.506C853.654 604.425 793.879 545.817 771.83 461.997C752.596 388.877 730.378 271.007 689.879 213.992C649.381 156.976 576.979 164.368 503.695 172.222C430.72 179.464 358.008 187.467 285.033 194.71C212.059 201.952 139.347 209.955 84.0024 182.315C28.9671 154.062 -8.17536 91.6884 -27.0095 59.74L-45.5806 28.5532L-170.228 275.18L-139.904 283.111C-109.007 291.193 -48.3577 307.056 12.8636 323.069C74.0849 339.082 134.734 354.946 195.955 370.959C257.177 386.972 317.826 402.835 379.047 418.848C440.268 434.861 428.821 431.867 490.042 447.88C551.264 463.893 516.594 516.263 651.537 551.559C684.227 560.11 853.654 604.425 884.551 612.506L926.364 623.443Z" fill="#7177F1" fill-opacity="0.3"/>
<path fill-rule="evenodd" clip-rule="evenodd" d="M896.55 625.381L866.226 617.449C835.329 609.368 774.68 593.504 740.402 524.181C706.438 454.237 699.989 331.133 659.759 273.587C619.529 216.042 546.974 223.734 473.535 231.897C400.408 239.44 327.54 247.752 254.413 255.295C181.287 262.837 108.419 271.15 53.1505 243.359C-1.80485 214.948 -38.6433 151.973 -57.3214 119.716L-75.7406 88.2283L-202 338.044L-171.675 345.975C-140.779 354.057 -80.1295 369.92 -18.9082 385.933C42.3131 401.946 102.962 417.81 164.183 433.823C225.405 449.836 286.054 465.699 347.275 481.712C408.496 497.725 469.146 513.589 530.367 529.602C591.588 545.615 652.237 561.478 713.459 577.491C774.68 593.504 835.329 609.368 866.226 617.449L896.55 625.381Z" fill="#9297EF"/>
</svg>
