<svg width="1085" height="1197" viewBox="0 0 1085 1197" fill="none" xmlns="http://www.w3.org/2000/svg">
<path fill-rule="evenodd" clip-rule="evenodd" d="M126.365 851.951L176.625 836.241C213.764 824.633 327.42 832.429 429.854 879.096C519.211 919.806 654.931 990.351 748.771 1007.82C842.611 1025.29 904.027 979.546 965.829 932.988C1027.93 887.034 1089.05 840.69 1151.15 794.736C1213.25 748.782 1274.37 702.439 1353.7 690.913C1433.34 679.992 1529.21 703.11 1578.13 715.058L1626.07 726.617L1504.26 483.2L1467.81 494.594C1430.67 506.202 1357.77 528.989 1284.18 551.99C1210.59 574.992 1137.69 597.779 1064.1 620.781C990.513 643.782 917.611 666.569 844.021 689.571C770.432 712.572 784.192 708.271 710.602 731.273C637.013 754.275 618.919 697.994 456.714 748.694C417.42 760.977 213.764 824.633 176.625 836.241L126.365 851.951Z" fill="#7177F1" fill-opacity="0.3"/>
<path fill-rule="evenodd" clip-rule="evenodd" d="M152.73 833.895L189.181 822.501C226.32 810.893 299.222 788.106 399.141 817.721C499.366 847.948 625.234 931.007 719.336 948.997C813.439 966.988 874.706 920.952 936.355 874.089C998.311 827.838 1059.27 781.19 1121.23 734.939C1183.18 688.688 1244.14 642.041 1323.55 630.664C1403.26 619.898 1499.43 643.61 1548.51 655.863L1596.6 667.719L1473.21 421.154L1436.76 432.547C1399.63 444.156 1326.72 466.943 1253.13 489.944C1179.54 512.946 1106.64 535.733 1033.05 558.734C959.464 581.736 886.562 604.523 812.973 627.524C739.383 650.526 666.481 673.313 592.892 696.315C519.302 719.316 446.401 742.103 372.811 765.105C299.222 788.106 226.32 810.893 189.181 822.501L152.73 833.895Z" fill="#9297EF"/>
<path fill-rule="evenodd" clip-rule="evenodd" d="M576.261 872.272L610.842 851.867C636.395 836.789 674.9 766.06 673.281 679.815C671.868 604.579 661.738 485.364 683.423 420.706C705.108 356.047 771.686 346.178 839.169 336.549C906.22 326.4 973.23 317.05 1040.28 306.902C1107.33 296.754 1174.34 287.404 1216.77 247.664C1258.76 207.405 1276.08 138.354 1284.78 103.03L1293.44 68.5036L1467.56 277.72L1442.48 292.518C1416.93 307.595 1366.77 337.192 1316.14 367.068C1265.51 396.944 1215.35 426.54 1164.71 456.416C1114.08 486.292 1063.92 515.889 1013.29 545.765C962.656 575.641 972.123 570.054 921.49 599.93C870.857 629.806 915.16 672.305 803.556 738.157C776.519 754.109 636.395 836.789 610.842 851.867L576.261 872.272Z" fill="#7177F1" fill-opacity="0.3"/>
<path fill-rule="evenodd" clip-rule="evenodd" d="M603.395 867.138L628.475 852.34C654.028 837.262 704.187 807.666 717.183 732.566C729.74 656.94 704.187 536.37 725.498 471.262C746.808 406.153 813.598 396.539 881.299 387.172C948.563 377.279 1015.79 368.191 1083.05 358.297C1150.32 348.404 1217.55 339.316 1259.86 299.449C1301.74 259.056 1318.64 189.494 1327.13 153.908L1335.58 119.127L1511.95 331.048L1486.87 345.847C1461.31 360.924 1411.15 390.521 1360.52 420.397C1309.89 450.272 1259.73 479.869 1209.1 509.745C1158.46 539.621 1108.3 569.217 1057.67 599.093C1007.04 628.969 956.878 658.566 906.246 688.442C855.613 718.317 805.453 747.914 754.82 777.79C704.187 807.666 654.028 837.262 628.475 852.34L603.395 867.138Z" fill="#9297EF"/>
</svg>
